<?xml version="1.0" encoding="iso-8859-1"?>
<!-- Generator: Adobe Illustrator 19.0.0, SVG Export Plug-In . SVG Version: 6.00 Build 0)  -->
<svg version="1.1" id="Capa_1" xmlns="http://www.w3.org/2000/svg" xmlns:xlink="http://www.w3.org/1999/xlink" x="0px" y="0px"
	 viewBox="0 0 512 512" style="enable-background:new 0 0 512 512;" xml:space="preserve">
<path style="fill:#8DFFFF;" d="M322.053,55.256c-73.674-73.674-193.123-73.674-266.798,0c-73.674,73.674-73.674,193.124,0,266.798
	s193.124,73.674,266.798,0C395.727,248.379,395.727,128.93,322.053,55.256z"/>
<rect x="335.489" y="298.997" transform="matrix(-0.7071 0.7071 -0.7071 -0.7071 844.5505 349.8293)" style="fill:#183D4C;" width="28.669" height="101.659"/>
<path style="fill:#45748C;" d="M322.053,55.256c-73.674-73.674-193.123-73.674-266.798,0c-73.674,73.674-73.674,193.124,0,266.798
	s193.124,73.674,266.798,0C395.727,248.379,395.727,128.93,322.053,55.256z"/>
<path style="fill:#2D5872;" d="M322.053,55.256c-42.181-42.181-99.366-60.2-154.376-54.08c41.071,4.569,80.929,22.587,112.422,54.08
	c73.674,73.674,73.674,193.124,0,266.798c-31.493,31.493-71.351,49.511-112.422,54.08c55.009,6.119,112.194-11.899,154.376-54.08
	C395.728,248.379,395.728,128.93,322.053,55.256z"/>
<circle style="fill:#8DFFFF;" cx="188.65" cy="188.65" r="156.68"/>
<path style="fill:#21D8DE;" d="M299.444,77.865c-35.972-35.972-85.083-50.786-131.886-44.462
	c32.806,4.433,64.479,19.247,89.694,44.462c61.188,61.188,61.188,160.392,0,221.58c-25.215,25.215-56.888,40.029-89.694,44.462
	c46.802,6.324,95.913-8.489,131.886-44.462C360.632,238.257,360.632,139.052,299.444,77.865z"/>
<path style="fill:#BF6325;" d="M507.323,481.003l-26.32,26.32c-6.236,6.236-16.348,6.236-22.584,0l-96.91-96.91
	c-6.236-6.236-6.236-16.348,0-22.584l26.32-26.32c6.236-6.236,16.348-6.236,22.584,0l96.91,96.91
	C513.56,464.655,513.56,474.767,507.323,481.003z"/>
<path style="fill:#9E5015;" d="M507.323,458.419l-96.91-96.91c-6.236-6.236-16.348-6.236-22.584,0l-18.214,18.214l119.494,119.494
	l18.214-18.214C513.56,474.767,513.56,464.655,507.323,458.419z"/>
<path style="fill:#E9FEFF;" d="M190.152,128.503c-59.916,0-110.958,34.696-130.341,49.802c-4.488,3.498-4.488,10.282,0,13.78
	c19.383,15.106,70.424,49.802,130.341,49.802c59.916,0,110.958-34.696,130.341-49.802c4.488-3.498,4.488-10.282,0-13.78
	C301.109,163.2,250.068,128.503,190.152,128.503z"/>
<path style="fill:#45748C;" d="M190.163,241.888c24.083-0.002,46.73-5.611,66.466-13.298c8.161-12.474,12.918-27.375,12.918-43.395
	s-4.758-30.921-12.918-43.395c-19.735-7.687-42.382-13.296-66.466-13.298c-0.223,0-0.444,0.007-0.666,0.007
	c-23.844,0.101-46.265,5.672-65.825,13.291c-8.16,12.474-12.918,27.375-12.918,43.395s4.758,30.92,12.918,43.395
	c19.56,7.619,41.981,13.19,65.825,13.29C189.721,241.882,189.941,241.888,190.163,241.888z"/>
<circle style="fill:#2D5872;" cx="190.15" cy="185.2" r="38.16"/>
<g>
</g>
<g>
</g>
<g>
</g>
<g>
</g>
<g>
</g>
<g>
</g>
<g>
</g>
<g>
</g>
<g>
</g>
<g>
</g>
<g>
</g>
<g>
</g>
<g>
</g>
<g>
</g>
<g>
</g>
</svg>
